<svg xmlns="http://www.w3.org/2000/svg" xmlns:xlink="http://www.w3.org/1999/xlink" width="329" height="289" viewBox="0 0 329 289">
    <defs>
        <path id="a" d="M.333 134H15V.333H.333V134z"/>
        <path id="c" d="M.333 134H15V.333H.333V134z"/>
        <path id="e" d="M.333 134H15V.333H.333z"/>
        <path id="g" d="M.333 134H15V.333H.333V134z"/>
        <path id="i" d="M317 7H.833V.333H317z"/>
        <path id="j" d="M0 30h29.36V.704H0z"/>
    </defs>
    <g fill="none" fill-rule="evenodd">
        <path fill="#B8BEBC" d="M230.967 286.046l-5.425-77.76a5.372 5.372 0 0 0-5.343-4.983h-26.857a5.373 5.373 0 0 0-5.343 4.983l-5.425 77.76-6.982-.486 5.425-77.76c.45-6.447 5.864-11.497 12.325-11.497h26.857c6.46 0 11.875 5.05 12.326 11.495l5.424 77.762-6.982.486z"/>
        <path fill="#828893" d="M233.043 215.22h-7.02l-.48-6.93c-.2-2.8-2.54-4.99-5.34-4.99h-26.86a5.37 5.37 0 0 0-5.34 4.99l-.48 6.93h-7.03l.52-7.42c.45-6.45 5.87-11.5 12.33-11.5h26.86c6.46 0 11.87 5.05 12.32 11.5l.52 7.42z"/>
        <path fill="#F6AF87" d="M197.643 39.53c-1.57 2.07-2.39 2.64-2.81 2.73-.24.04-.39.25-.38.49.01.08.02.18.02.28.31 4.55-1.21 9.11-4.44 12.33-.4.4-.85.8-1.32 1.17l1.917 8.002s.513 10.568-9.547 10.938c0 0-5.5-1.25-6.13-6.75-.62-5.5-1.12-7.5-1.12-7.5-8.38 0-13.875-6.875-14.625-14.875l-.544-24.795h30.339l-.013 15.045c.66.3 1.923 1.135 2.284.005.5-1.57.5-7.07 3.309-6.94 2.81.12 6 6 3.06 9.87"/>
        <path fill="#FEE05A" d="M177.895 208.158h-64.438l-1.29-8.604 2.5-15.333 10-7.167 24.832-2.334 7.5-4.333 9.458-9.542 34.042-60h26.71l4.457 2.209-.5 14.666v14.834L230 169.387l-1.5 23.333-23-.5-16 1.334-8.166 3z"/>
        <path fill="#3B5998" d="M218.167 84.803c-6.75-16.917-27.584-20.25-27.584-20.25l.078.177c-.082.807-1.416 11.633-9.885 10.228-4.702-.78-5.608-4.693-5.843-6.562-.068-.535-.157-1.11-.157-1.11s-9.443 2.934-13.526 12.1c-4.083 9.167-11.5 26.834-11.5 26.834l10.5 3.833-.5 56.333 53.583.5-.498-58.817 11.748-3.599s.334-2.75-6.416-19.667"/>
        <path fill="#FCA98D" d="M118.5 131.553s-4.833-7.25-11.083-8.917l-.084 3.667s-10.333-1.333-12.083-.5-1.5 2.75-.917 3.583c.584.834-1.75 1.584-1.333 3 .417 1.417.917 2 2.25 2.084 1.333.083-1.417 2.666.167 3.583 1.583.917 9.583 3.167 16.5 3.583 5.848.353 28.077-.01 34.808-.13a3.132 3.132 0 0 0 2.848-1.942c.525-1.28 1.278-3.345 2.26-6.594 2.167-7.167 8.417-22.917 8.417-22.917l-10.011-3.599-9.822 25.6-21.917-.5z"/>
        <path fill="#FDA829" d="M182.667 204.053s-1-5.167 9-5.5c10-.333 37.833 0 37.833 0s7.833-1 6.333-9.667c-1.5-8.666-3.833-26.166-3.166-33.666.666-7.5 3.833-45.167 3.833-45.167s1.667-7.5-3.833-9.167l-5.46-.04s3 .186 3 6.061-2.311 31.563-2.311 31.563-4.813 13.562-1.375 34.312c0 0 2.125 14.875 1.125 15.625s-38.625.125-38.625.125-7.875-1.5-12.5 5.5-4.454 11.143-.688 13.72c1.188.812 4.575.56 5.75-.72 1.256-1.365 1.084-2.979 1.084-2.979"/>
        <path fill="#30353B" d="M169.208 147.22H75.333v-6.05h90.642a3.233 3.233 0 0 1 3.233 3.234v2.816z"/>
        <path fill="#575C6E" d="M169.208 147.22h-35.541v-6.05h32.308a3.233 3.233 0 0 1 3.233 3.234v2.816z"/>
        <path fill="#646779" d="M136.708 141.345h-3.375l-9-60h3.875a2.762 2.762 0 0 1 2.749 2.488l5.75 57.512z"/>
        <g transform="translate(307 154.72)">
            <mask id="b" fill="#fff">
                <use xlink:href="#a"/>
            </mask>
            <path fill="#B8BEBC" d="M15 134H8.333L.333.333H7z" mask="url(#b)"/>
        </g>
        <g transform="translate(267 154.72)">
            <mask id="d" fill="#fff">
                <use xlink:href="#c"/>
            </mask>
            <path fill="#78909C" d="M15 134H8.333L.333.333H7z" mask="url(#d)"/>
        </g>
        <g transform="translate(6 154.72)">
            <mask id="f" fill="#fff">
                <use xlink:href="#e"/>
            </mask>
            <path fill="#B8BEBC" d="M.333 134H7L15 .333H8.333z" mask="url(#f)"/>
        </g>
        <path fill="#44465E" d="M96.732 271.786l-13.27-4.264 4.035-12.555 13.27 4.264zM157.02 271.595l-15.995-4.573 4.034-12.555 13.27 4.263z"/>
        <g transform="translate(42 154.72)">
            <mask id="h" fill="#fff">
                <use xlink:href="#g"/>
            </mask>
            <path fill="#78909C" d="M.333 134H7L15 .333H8.333z" mask="url(#h)"/>
        </g>
        <path fill="#35364E" d="M81.458 256.262s8.875 10.375 21.875 5.625l22.5-72.75 17-1 22.75-9 18.584-13.25-25.667-.25-37.917.083s-11.25-.333-16.083 14.5c-4.833 14.834-23.042 76.042-23.042 76.042"/>
        <path fill="#3E425A" d="M213.333 165.887l-.333 14.5s-1 7-8.5 7.833c-7.5.834-37.5 0-37.5 0l-4.833 73.167s-19.334 3.5-24-2.333l3.666-63.167s-.552-8.154 1.75-14.833c1.79-5.195 5.663-9.094 10.584-10.167 15.666-3.417 28.416-5 28.416-5h30.75z"/>
        <path fill="#FFF7E7" d="M186.503 122.14l-.33 4-1.15 13.75-.52 6.747h-14.42l-.52-6.747-1.15-13.75-.33-4z"/>
        <path fill="#F9E7D4" d="M168.612 119.303h17.361v-3.453h-17.361z"/>
        <path fill="#E8D5C4" d="M168.612 119.303h2.697v-3.453h-2.697zM183.612 119.303h2.697v-3.453h-2.697z"/>
        <path fill="#E9676D" d="M186.174 126.14l-1.15 13.75-15.603-.014-1.15-13.75z"/>
        <path fill="#F9E7D4" d="M166.125 122.303h22.333v-3.833h-22.333z"/>
        <path fill="#E5D0BE" d="M168.099 123.082h18.481v-.779h-18.481z"/>
        <path fill="#D8C5B6" d="M168.598 118.474h17.739v-.52h-17.739z"/>
        <path fill="#41261C" d="M179.588 36.537c0 .949-.671 1.719-1.5 1.719-.828 0-1.5-.77-1.5-1.72 0-.948.672-1.718 1.5-1.718.829 0 1.5.77 1.5 1.719M165.588 36.787c0 .949-.671 1.719-1.5 1.719-.828 0-1.5-.77-1.5-1.72 0-.948.672-1.718 1.5-1.718.829 0 1.5.77 1.5 1.719"/>
        <path fill="#DF745B" d="M167.686 43.588c.165-.534.816-.783 1.278-.468.629.43 1.344.876 3.16.048.43-.196 1.713-.601 1.745.899.016.794-.92 1.529-2.316 1.736-1.24.184-2.917-.07-3.476-.746-.474-.572-.513-1.073-.39-1.47"/>
        <path fill="#F07662" d="M197.688 39.492c-1.57 2.07-2.39 2.64-2.81 2.73-.24.04-.39.25-.38.49.01.08.02.18.02.28.31 4.55-1.21 9.11-4.44 12.33-.4.4-.85.8-1.32 1.17l1.16 5.107c-.72.672-6.244 6.352-15.298 4.204-.61-3.797-.682-4.361-.732-4.591 4.33-.18 11.57-2.18 13.53-13.2.96-5.41 1.466-9.08 1.696-11.23.67.3 1.854.88 2.204-.22.5-1.57 1.148-6.171 3.958-6.041 2.81.12 5.351 5.1 2.412 8.97"/>
        <path fill="#853122" d="M200.768 31.028s-.439 8.36-1.52 12.94c-.5 2.12-1.65 3.11-2.74 3.55-.91.37-1.769.36-2.179.33-.1-.01-.17-.02-.21-.03a17.2 17.2 0 0 0 .36-4.91s-.07-.59.36-.79c.05-.03.12-.05.2-.06.26-.06.66-.26 1.27-.91.38-.41.84-.98 1.42-1.8 2.7-3.89-.13-8.26-2.36-8.36-1.37-.06-2.62 1.25-2.62 1.25-.82 1.25-.91 2.66-1.1 3.9-.28 1.87-1.88 1.33-2.39.84l-.09-.09c-.14-.16-.25-.46-.34-.85-.75-3.1-.21-12.36-.21-12.36l.46-.46 4 .42 3.59 1.67 4.1 5.72z"/>
        <path fill="#FF7B10" d="M178.417.637s-20.084.75-19.334 18.25l9.167 3.083L188 23.887s9.167 1.583 12.833 7.25c0 0 5.944-15.458-3.833-24-7.917-6.917-18.583-6.5-18.583-6.5"/>
        <path fill="#E06C0D" d="M200.802 31.109c-1.97-3.05-5.54-4.92-8.41-5.99.46-5.11-.27-11.68-5.51-16.26-5.88-5.15-13.29-6.23-16.7-6.44 4.3-1.66 8.2-1.81 8.2-1.81s10.67-.42 18.59 6.5c9.77 8.54 3.83 24 3.83 24"/>
        <path fill="#DE6124" d="M158.667 27.637s-16.517-.55-14.393-5.836c.287-.712.879-1.257 1.574-1.583.96-.451 2.572-1.075 4.189-1.11 2.546-.054 10.88 3.446 10.88 3.446l.125 1.458s-2.584-.667-2.375 3.625"/>
        <path fill="#F07662" d="M188.614 24.064s-.187 3.438-.187 6.719c-14.6-3.64-26.899-.913-29.758-.134l.011-4.33.164-.776.272-.646.364-.471 1.786-1.703 23.817.372 3.531.969z"/>
        <path fill="#C9610C" d="M160.645 18.97h-7.25l-3.358.138c.925.068 1.995.312 3.233.8 7.937 3.124 9.563 8.375 21.25 6.812 11.687-1.563 13.984-2.703 13.984-2.703s-9.109-5.047-27.859-5.047"/>
        <path fill="#853122" d="M182.504 31.547a1 1 0 0 1-.551-.166c-2.605-1.726-6.475-.098-6.513-.082a1 1 0 0 1-.788-1.837c.2-.085 4.914-2.061 8.405.25a1 1 0 0 1-.553 1.835"/>
        <path fill="#2F4678" d="M207.458 105.595v60.25h5.875l-.438-56.979z"/>
        <path fill="#853122" d="M160.049 31.802a1 1 0 0 1-.633-1.775c1.28-1.043 5.084-2.131 8.115-.585a1 1 0 1 1-.91 1.78c-2.231-1.14-5.176-.268-5.941.355a.998.998 0 0 1-.631.225"/>
        <path fill="#ECEFF1" d="M0 157.387h329V146.72H0z"/>
        <path fill="#CFD8DC" d="M158.645 287.137l-39.469-.042c-.418 0-.85-.146-1.299-.554-.545-.494-.848-1.201-.953-1.93l-.175-2.224h44l-.004 2.028c-.006 1.023-.514 2.015-1.412 2.506-.247.135-.487.216-.688.216"/>
        <path fill="#546E7A" d="M158.05 264.413c1.526 3.48 4.547 11.712 2.7 18.974h-44s-1.417-6.584 10.75-6.166c0 0 10.07-7.98 13.332-14.75a2.048 2.048 0 0 1 1.324-1.082c1.446-.382 4.204-.718 6.427 1.332 2.095 1.928 5.21 1.305 7.08.663a1.913 1.913 0 0 1 2.387 1.03"/>
        <path fill="#607D8B" d="M149.906 263.637s1.74 1.288 1.933 4.939c.082 1.535.955 2.752 2.431 3.176.908.26 2.02.285 2.72-.948 1.19-2.1.374-4.931-.269-6.526a1.763 1.763 0 0 0-1.797-1.11l-5.018.469z"/>
        <path fill="#CFD8DC" d="M100.645 286.637l-39.469-.042c-.418 0-.85-.146-1.299-.554-.545-.494-.848-1.201-.953-1.93l-.175-2.224h44l-.004 2.028c-.006 1.023-.514 2.015-1.412 2.506-.247.135-.487.216-.688.216"/>
        <path fill="#546E7A" d="M100.09 264.007c1.54 3.53 4.49 11.684 2.66 18.88h-44s-1.417-6.584 10.75-6.167c0 0 9.445-7.484 13.004-14.106.55-1.026 1.52-1.77 2.674-1.932 1.517-.213 3.63-.096 5.405 1.538 2.059 1.896 5.103 1.328 6.982.697 1.005-.337 2.102.119 2.526 1.09"/>
        <path fill="#607D8B" d="M91.906 263.137s1.74 1.288 1.933 4.939c.082 1.535.955 2.752 2.431 3.176.908.26 2.02.285 2.72-.948 1.19-2.098.375-4.93-.269-6.524a1.765 1.765 0 0 0-1.799-1.111l-5.016.468z"/>
        <path fill="#FEEFD7" d="M134.419 278.053c-1.092-.286-2.14-.566-3.387-.693-2.53-.259-5.29-.096-5.29-.096s1.42-1.08 3.482-1.617c2.049-.534 5.139-1.053 7.814 1.36 0 0 1.026 2.001-2.62 1.046M131.849 273.47a26.752 26.752 0 0 1 3.559.14c1.248.127 2.295.407 3.386.693 3.645.955 2.619-1.046 2.619-1.046-2.674-2.413-5.765-1.894-7.814-1.36 0 0-.676.123-1.301.654-.625.531-.45.92-.45.92M135.724 269.553a26.924 26.924 0 0 1 3.559.14c1.248.128 2.295.407 3.386.693 3.645.955 2.619-1.046 2.619-1.046-2.674-2.413-5.765-1.894-7.814-1.36 0 0-.676.123-1.301.655-.625.531-.45.918-.45.918M76.419 277.553c-1.092-.286-2.14-.566-3.387-.693-2.53-.259-5.29-.096-5.29-.096s1.42-1.08 3.482-1.617c2.049-.534 5.139-1.053 7.814 1.36 0 0 1.026 2.001-2.62 1.046M73.849 272.97a26.752 26.752 0 0 1 3.559.14c1.248.127 2.295.407 3.386.693 3.645.955 2.619-1.046 2.619-1.046-2.674-2.413-5.765-1.894-7.814-1.36 0 0-.676.123-1.301.654-.625.531-.45.92-.45.92M77.724 269.053a26.924 26.924 0 0 1 3.559.14c1.248.128 2.295.407 3.386.693 3.645.955 2.619-1.046 2.619-1.046-2.674-2.413-5.765-1.894-7.814-1.36 0 0-.676.123-1.301.655-.625.531-.45.918-.45.918"/>
        <path fill="#434A53" d="M133.708 141.345H75.172a2.032 2.032 0 0 1-2.022-1.829l-5.593-55.939a2.03 2.03 0 0 1 2.019-2.232h56.152c1.125 0 2.066.852 2.177 1.97l5.803 58.03z"/>
        <path fill="#646779" d="M103.833 109.22a6 6 0 1 1-12 0 6 6 0 0 1 12 0"/>
        <path fill="#F07662" d="M149.192 109.36l10.734 1.548.324-.855-10.01-3.598z"/>
        <path fill="#FCA98D" d="M197.27 133.72s-4.708-7.229-10.958-8.896L186 128.45s-10.229-1.312-11.979-.479c-1.75.833-1.5 2.75-.916 3.583.217.31-.255.741-.459 1.386-.345 1.09-.412 2.591 1.375 3.698 1.137.703-1.583 1.416.084 4.083.265.424 1.261.698 2.5 1.083 3.292 1.024 9.058 1.697 14.083 2 6.917.417 38 .167 38 .167s3.333-1.667 1.917-8.833c-1.417-7.167-7.75-30.25-7.75-30.25l-10.167 3.166.251 1 5.416 21.584.833 3.583-21.917-.5z"/>
        <path fill="#F07662" d="M223.667 107.908l-10.771.958-.23-.791 10.189-3.188z"/>
        <path fill="#75291F" d="M195.969 47.699a5.054 5.054 0 0 1-1.64.15c-.04.19-.07.39-.12.59l-.7-.65.39-5.84c.28.11.59.17.94.14v.03c.05-.03.12-.05.2-.06.186-.043.443-.157.795-.455l.135 6.095z"/>
        <path fill="#853122" d="M194.839 42.088v.03c0 .3 0 2.88-.51 5.73-.04.19-.07.39-.12.59-.06.32-.13.63-.21.95-.08.26-.2.5-.29.75-1.99 6.79-10.25 13.76-17.681 13.76h-2.72c-9.03 0-14.11-9.13-14.11-18.16l-.048-2.47 1.139 1.71c1.04 1.55 2.82 2.49 4.68 2.39.7-.04 1.44-.18 2.2-.49 2.76-1.14 6.08-.28 7.92.25 0 0 3.33 1.18 4.189.82 7.92-3.29 8.98-5.76 9.55-11.91 0-.05.01-.09.01-.14l1.98-.05.832.29s.049 4.89 2.25 5.81c.279.11.589.17.939.14"/>
        <path fill="#DF745B" d="M170.32 53.336c-1.96 0-3.176-1.31-3.626-1.901a.757.757 0 0 1 .107-1.023.667.667 0 0 1 .971.114c.426.56 1.367 1.477 2.85 1.34.554-.051 1.652-.3 2.762-1.377a.666.666 0 0 1 .976.042.755.755 0 0 1-.04 1.027c-1.41 1.37-2.847 1.69-3.577 1.758a4.38 4.38 0 0 1-.423.02"/>
    </g>
</svg>
