<svg xmlns="http://www.w3.org/2000/svg" xmlns:xlink="http://www.w3.org/1999/xlink" width="180" height="30" viewBox="0 0 180 30">
    <defs>
        <path id="a" d="M7.79 12.723V.313H.421v12.41H7.79z"/>
        <path id="c" d="M0 30h29.36V.704H0z"/>
    </defs>
    <g fill="none" fill-rule="evenodd">
        <path fill="#42A8F2" d="M41.479 6.072h3.096v7.225h7.8V6.072h3.097v17.04h-3.096v-7.151h-7.801v7.152h-3.096zM63.199 21.025c1.608 0 2.76-1.729 2.76-3.217v-.287h-.529c-1.56 0-4.08.216-4.08 1.92 0 .815.6 1.584 1.849 1.584m2.328-5.593h.407v-.168c0-1.608-1.007-2.16-2.351-2.16-1.752 0-3.36 1.176-3.36 1.176l-1.152-2.184s1.896-1.512 4.8-1.512c3.217 0 5.089 1.776 5.089 4.873v7.656h-2.81v-1.008c0-.48.048-.864.048-.864h-.047c.025 0-.936 2.16-3.72 2.16-2.184 0-4.152-1.368-4.152-3.816 0-3.888 5.255-4.153 7.247-4.153M77.886 10.584c3.193 0 4.706 1.824 4.706 1.824l-1.346 2.089s-1.271-1.32-3.191-1.32c-2.257 0-3.72 1.704-3.72 3.792 0 2.064 1.488 3.84 3.816 3.84 2.065 0 3.6-1.56 3.6-1.56l1.176 2.16s-1.752 1.992-5.04 1.992c-4.056 0-6.648-2.856-6.648-6.408 0-3.48 2.591-6.41 6.647-6.41M85.206 6.072h3.048v9.12h1.513l2.952-4.32h3.384l-3.864 5.472v.048l4.344 6.72H93.08l-3.24-5.352h-1.585v5.353h-3.048zM98.454 10.872h2.928v1.417c0 .455-.048.84-.048.84h.048c.6-1.2 2.064-2.545 3.985-2.545 1.872 0 3.072.864 3.576 2.52h.048c.672-1.32 2.256-2.52 4.176-2.52 2.544 0 4.009 1.44 4.009 4.657v7.872h-3.05v-7.297c0-1.391-.263-2.447-1.68-2.447-1.56 0-2.591 1.248-2.951 2.784-.12.48-.144 1.008-.144 1.584v5.376h-3.048v-7.297c0-1.32-.216-2.447-1.657-2.447-1.584 0-2.616 1.248-3 2.808-.12.456-.144 1.007-.144 1.56v5.376h-3.048V10.872zM128.07 15.48c-.047-1.655-1.08-2.544-2.423-2.544-1.56 0-2.64.96-2.93 2.544h5.354zm-2.351-4.896c3.528 0 5.424 2.568 5.424 5.808 0 .36-.072 1.177-.072 1.177h-8.448c.192 2.136 1.848 3.24 3.672 3.24 1.968 0 3.528-1.345 3.528-1.345l1.176 2.185s-1.872 1.752-4.92 1.752c-4.056 0-6.577-2.928-6.577-6.408 0-3.769 2.569-6.409 6.217-6.409zM133.661 10.872h2.928v1.417c0 .455-.048.84-.048.84h.048c.528-1.032 1.872-2.545 4.344-2.545 2.713 0 4.25 1.417 4.25 4.657v7.872h-3.025v-7.248c0-1.488-.384-2.496-1.944-2.496-1.633 0-2.833 1.03-3.289 2.496-.168.504-.216 1.056-.216 1.632v5.616h-3.048V10.872zM148.901 13.488h-1.584v-2.424h1.656V7.536h2.976v3.528h2.785v2.424h-2.785v4.753c0 2.016 1.585 2.304 2.425 2.304.336 0 .552-.048.552-.048v2.664s-.36.072-.937.072c-1.704 0-5.088-.504-5.088-4.608v-5.137zM163.254 20.81c1.968 0 3.625-1.537 3.625-3.817 0-2.257-1.657-3.817-3.625-3.817-1.992 0-3.648 1.56-3.648 3.817 0 2.28 1.656 3.816 3.648 3.816m-.024-10.226c3.744 0 6.745 2.665 6.745 6.41 0 3.768-3.001 6.408-6.721 6.408-3.744 0-6.745-2.64-6.745-6.408 0-3.745 3-6.41 6.72-6.41"/>
        <g transform="translate(172 10.39)">
            <mask id="b" fill="#fff">
                <use xlink:href="#a"/>
            </mask>
            <path fill="#59B0D3" d="M.421.482H3.35v2.112c0 .456-.048.865-.048.865h.048C3.901 1.707 5.365.314 7.237.314c.288 0 .553.049.553.049v3s-.312-.048-.72-.048c-1.296 0-2.76.744-3.336 2.567-.193.6-.265 1.273-.265 1.993v4.848H.421V.482z" mask="url(#b)"/>
        </g>
        <g transform="translate(0 -.61)">
            <mask id="d" fill="#fff">
                <use xlink:href="#c"/>
            </mask>
            <path fill="#42A8F2" d="M22.631 16.05l-2.977 2.965-.611-.612-.612-.61 1.58-1.57.866-.876-2.446-2.446.612-.693.611-.611 3.762 3.75-.785.704zm-8.861 5.677l-1.685-.484 3.508-12.267 1.673.485-3.496 12.266zm-4.42-5.505l1.57 1.57-1.224 1.223-3.75-3.668 3.75-3.75.612.611.612.693-1.57 1.58-.877.866.877.876zm19.246-8.295s-.946-4.511-5.03-6.092C21.65 1.095 18.154.738 14.704.703c-3.461.035-6.97.37-8.884 1.132C1.735 3.416.8 7.928.8 7.928c-.611 2.55-.83 5.133-.796 7.419-.034 2.283.15 4.904.796 7.43 0 0 .935 4.51 5.02 6.092 1.915.727 5.423 1.097 8.861 1.132 3.439-.035 6.935-.37 8.862-1.132 4.073-1.581 5.019-6.093 5.019-6.093.611-2.55.82-5.146.796-7.43.023-2.285-.15-4.869-.762-7.418z" mask="url(#d)"/>
        </g>
    </g>
</svg>
