<svg xmlns="http://www.w3.org/2000/svg" width="24" height="24" viewBox="0 0 24 24">
    <path fill="#78909C" fill-rule="nonzero" d="M23.894 8.861c-.132-.537-.66-.94-1.318-.94h-7.119L13.348.94C13.216.403 12.69 0 12.03 0c-.66 0-1.055.403-1.318.94L8.602 7.92h-7.25c-.527 0-1.054.403-1.318.94-.132.537.132 1.074.528 1.477l5.8 4.297-2.241 6.981c-.132.537 0 1.209.527 1.477.264.134.79.537 1.582 0l5.8-4.296 5.8 4.296c.527.403 1.055.403 1.582 0 .527-.403.66-.94.527-1.477l-2.24-6.981 5.8-4.297c.395-.403.659-.94.395-1.477zm-8.568 4.162c-.528.403-.66.94-.528 1.477l1.318 3.894-3.295-2.417c-.527-.403-1.055-.403-1.582 0l-3.295 2.417L9.262 14.5c.132-.537 0-1.208-.528-1.477L5.44 10.607h4.086c.528 0 1.055-.403 1.319-.94l1.318-3.894 1.318 3.894c.132.537.66.94 1.318.94h3.823l-3.295 2.416z"/>
</svg>
