<svg xmlns="http://www.w3.org/2000/svg" width="26" height="22" viewBox="0 0 26 22">
    <g fill="#78909C" fill-rule="nonzero">
        <path d="M19.036 12.244c2.234-.001 4.043-1.834 4.044-4.097 0-2.264-1.81-4.097-4.044-4.098-2.234.001-4.043 1.834-4.044 4.098 0 2.263 1.81 4.096 4.044 4.097zm0-5.699a1.594 1.594 0 0 1 1.58 1.601 1.594 1.594 0 0 1-1.58 1.602 1.594 1.594 0 0 1-1.58-1.602c0-.883.707-1.6 1.58-1.601z"/>
        <path d="M3.372 21.789l9.402.017.085-.008 9.92-.017a2.907 2.907 0 0 0 2.088-.884c.527-.54.848-1.29.848-2.1l-.023-.36h.002l-.23-2.18-.004-.03c-.246-1.888-1.835-3.297-3.717-3.298H16.29c-.434 0-.85.09-1.243.23-.804-1.119-2.096-1.842-3.547-1.842H4.676c-2.2 0-4.06 1.647-4.357 3.856l-.004.035-.288 2.734h.002L0 18.37c0 1.86 1.484 3.41 3.372 3.418zm18.37-6.364a1.29 1.29 0 0 1 1.275 1.126l.227 2.152.003.024.004.071c-.005.277-.204.487-.474.487l-6.756.012c.08-.292.137-.593.137-.91l-.025-.398h.002l-.243-2.483.398-.081h5.453zM4.677 13.813h6.825c.932 0 1.709.681 1.881 1.598l.003.007.033.107.266 2.71.003.031.008.122a.922.922 0 0 1-.876.914h-.045l-.042.009-9.355-.018a.924.924 0 0 1-.913-.922l.009-.128.004-.036.284-2.7a1.94 1.94 0 0 1 1.915-1.694zM1.678 7.953c.665-.25 1.227-.687 1.563-1.243.607 2.129 2.523 3.695 4.82 3.695 2.784 0 5.039-2.285 5.04-5.105C13.1 2.48 10.845.195 8.06.194c-.947 0-1.822.28-2.578.74a2.634 2.634 0 0 0-1.826-.74h-.002C2.163.198.954 1.42.95 2.935c.004.477.09.863.151 1.222.065.354.113.67.111.889 0 .217-.037.308-.061.347-.028.036-.06.109-.35.227A1.253 1.253 0 0 0 .09 7.23c.242.644.953.968 1.589.723zm2.04-5.202c-.094.166-.193.328-.27.504l-.033-.32.242-.246.062.062zm6.92 2.548C10.635 6.74 9.484 7.907 8.06 7.91 6.64 7.908 5.488 6.74 5.485 5.3c.003-1.44 1.154-2.607 2.576-2.61 1.423.003 2.574 1.17 2.577 2.61z"/>
    </g>
</svg>
